<?xml version="1.0" encoding="UTF-8"?>
<svg version="1.1" xmlns="http://www.w3.org/2000/svg" width="1024" height="1024">
<path d="M0 0 C337.92 0 675.84 0 1024 0 C1024 337.92 1024 675.84 1024 1024 C686.08 1024 348.16 1024 0 1024 C0 686.08 0 348.16 0 0 Z " fill="#121212" transform="translate(0,0)"/>
<path d="M0 0 C1.85527848 -0.00611329 1.85527848 -0.00611329 3.74803734 -0.01235008 C9.6191832 -0.03098061 15.49031325 -0.04557206 21.36148292 -0.05396205 C28.07959129 -0.06372909 34.79736977 -0.09006935 41.51536208 -0.13046294 C47.38489864 -0.16451451 53.25432655 -0.17612677 59.12395287 -0.18016624 C61.59760979 -0.18500255 64.07126395 -0.19653076 66.54485512 -0.21520424 C92.54097832 -0.39933849 108.79851885 3.27832228 127.78369141 21.82397461 C130.45404296 24.4930924 133.11142951 27.1742451 135.76171875 29.86328125 C141.08012023 35.25876101 146.39252171 40.55354419 152.14453125 45.48632812 C156.0201001 48.89454897 159.66375708 52.53986585 163.32421875 56.17578125 C164.10474609 56.93568359 164.88527344 57.69558594 165.68945312 58.47851562 C176.51480874 69.23041675 176.51480874 69.23041675 177.69921875 76.86328125 C176.52893694 83.88497209 171.25123042 88.36016411 166.32421875 93.11328125 C162.71317948 96.61799767 159.18422007 100.1255908 155.91064453 103.95117188 C152.14383228 108.28045719 148.18392693 112.38665181 144.1484375 116.46484375 C143.4051973 117.2161557 142.66195709 117.96746765 141.89619446 118.74154663 C140.33371366 120.31776188 138.76974297 121.89250149 137.2043457 123.46582031 C135.61846386 125.06325181 134.03706621 126.66514768 132.46020508 128.27148438 C130.1578221 130.61677485 127.84225172 132.94831049 125.5234375 135.27734375 C124.83142746 135.98686188 124.13941742 136.69638 123.42643738 137.42739868 C117.63712434 143.19170788 110.87291329 149.31384612 102.38671875 149.86328125 C97.14416014 149.47425747 93.81163154 147.08646088 90.32421875 143.23828125 C88.05860662 139.42251346 88.00035767 135.74510336 87.92578125 131.37109375 C87.89742187 130.23800781 87.8690625 129.10492188 87.83984375 127.9375 C87.78793456 125.56265467 87.74361192 123.18763089 87.70703125 120.8125 C87.69525215 112.4934736 87.69525215 112.4934736 84.13671875 105.23828125 C78.4342074 102.15547837 73.67218482 101.80218961 67.2644043 101.83422852 C66.29743118 101.82736526 65.33045807 101.82050201 64.33418274 101.81343079 C61.14711672 101.79518055 57.96054446 101.79900175 54.7734375 101.8046875 C52.53969667 101.80012119 50.30595725 101.79481428 48.07221985 101.7888031 C43.38752546 101.77987264 38.70300149 101.78229017 34.01831055 101.79223633 C28.06192929 101.80365922 22.1061468 101.78361688 16.14984417 101.75431919 C11.53136038 101.73581306 6.9130158 101.73627925 2.29450417 101.74195671 C0.10162333 101.74210853 -2.09126781 101.73618167 -4.28411293 101.72366524 C-20.24179051 101.64548499 -37.01974746 102.04901125 -51.36328125 109.98828125 C-52.01288818 110.33117187 -52.66249512 110.6740625 -53.33178711 111.02734375 C-59.04020128 114.13651107 -64.11785072 117.78446936 -68.86328125 122.23828125 C-69.48332031 122.80546875 -70.10335937 123.37265625 -70.7421875 123.95703125 C-74.85967258 128.15741872 -77.51985996 132.98176586 -80.17578125 138.17578125 C-80.51367676 138.83191406 -80.85157227 139.48804688 -81.19970703 140.1640625 C-87.66363057 153.41265109 -88.64028097 172.18581047 -84.17578125 186.17578125 C-83.45674327 187.88599312 -82.68969697 189.57729439 -81.86328125 191.23828125 C-81.51265625 192.01558594 -81.16203125 192.79289063 -80.80078125 193.59375 C-77.59993348 200.05101581 -72.88285501 205.13141056 -67.86328125 210.23828125 C-67.01443359 211.10646484 -67.01443359 211.10646484 -66.1484375 211.9921875 C-53.62068484 223.7235549 -35.18073005 227.55198604 -18.59643555 227.50952148 C-17.51680038 227.51474823 -16.43716522 227.51997498 -15.32481384 227.52536011 C-12.99506254 227.53554819 -10.66528881 227.54137138 -8.33551598 227.5432415 C-4.62809765 227.54693417 -0.92093999 227.56374381 2.78642273 227.58399963 C13.32282105 227.63910756 23.85924652 227.66992152 34.39575195 227.69458008 C40.85890547 227.71061054 47.3218756 227.74099436 53.78493309 227.77934456 C56.22650365 227.7908657 58.66810723 227.79692376 61.10970497 227.79702568 C79.65403761 227.79807981 98.16351974 228.51304206 116.01171875 234.05078125 C117.30964355 234.43979614 117.30964355 234.43979614 118.63378906 234.83666992 C143.77696256 242.54311315 165.12353671 255.06047627 184.13671875 273.23828125 C184.88050781 273.91890625 185.62429688 274.59953125 186.390625 275.30078125 C211.46543821 299.02373497 224.29563075 335.45113885 225.33984375 369.40234375 C225.91656852 409.61879439 216.08381957 447.56445372 189.13671875 478.23828125 C188.4303125 479.06585937 187.72390625 479.8934375 186.99609375 480.74609375 C165.20109022 505.75546831 136.09213624 522.32232734 104.13671875 530.61328125 C103.23759766 530.85199951 102.33847656 531.09071777 101.41210938 531.33666992 C82.80973306 535.86126268 63.50922312 535.55097041 44.49609375 535.5390625 C41.87257826 535.54296086 39.2490634 535.54729782 36.62554932 535.55204773 C31.16278444 535.56018906 25.70007147 535.55939906 20.23730469 535.55395508 C13.96825956 535.54790293 7.69943816 535.56028296 1.43043113 535.58152515 C-4.6671288 535.60140718 -10.76458562 535.60429913 -16.86217499 535.60079002 C-19.4279203 535.6012993 -21.99366951 535.60646209 -24.55939484 535.61660194 C-66.90219743 535.76354601 -66.90219743 535.76354601 -83.39453125 520.37890625 C-84.15416168 519.6711203 -84.15416168 519.6711203 -84.92913818 518.94903564 C-91.48335678 512.79211785 -97.79123084 506.38151829 -104.11328125 499.98828125 C-113.87774305 490.03885673 -113.87774305 490.03885673 -124.1953125 480.67480469 C-126.83710087 478.39958766 -129.27638602 475.95715068 -131.73828125 473.48828125 C-132.66382813 472.5653125 -133.589375 471.64234375 -134.54296875 470.69140625 C-137.53653119 467.52649512 -139.17864259 465.39748294 -139.36328125 461.05078125 C-139.18611439 455.25089777 -136.60005977 452.43365628 -132.86328125 448.23828125 C-132.18241455 447.47201416 -131.50154785 446.70574707 -130.80004883 445.91625977 C-122.33826789 436.55539858 -113.45933411 427.61367824 -104.54785156 418.68261719 C-101.86190494 415.98689993 -99.1868341 413.28067928 -96.51171875 410.57421875 C-94.77539983 408.83137322 -93.03844218 407.08916376 -91.30078125 405.34765625 C-90.51711182 404.55164001 -89.73344238 403.75562378 -88.92602539 402.93548584 C-73.73363908 387.80273873 -73.73363908 387.80273873 -64.61328125 386.92578125 C-60.10461953 387.30150306 -57.37055502 388.42724049 -53.86328125 391.23828125 C-47.21520328 399.11100516 -48.59829162 409.83337978 -48.43359375 419.609375 C-48.40265625 420.64449219 -48.37171875 421.67960937 -48.33984375 422.74609375 C-48.32002441 423.6808252 -48.30020508 424.61555664 -48.27978516 425.57861328 C-47.63810359 429.67619766 -46.09957674 432.2022188 -42.92750549 434.86053467 C-38.34313232 436.92177561 -34.02486946 436.65589211 -29.05297852 436.62646484 C-27.96282944 436.6317218 -26.87268036 436.63697876 -25.74949646 436.64239502 C-22.1427479 436.65560446 -18.53644064 436.64684771 -14.9296875 436.63671875 C-12.41446346 436.63874052 -9.89923998 436.64165281 -7.38401794 436.64541626 C-2.10565717 436.649842 3.17258949 436.64369284 8.45092773 436.62939453 C14.519199 436.61314424 20.58716663 436.61830096 26.65543026 436.63487375 C32.52178186 436.65024402 38.38802 436.64846697 44.25438118 436.63972855 C46.73525091 436.63773919 49.21612848 436.64014093 51.69698906 436.64716721 C74.53158185 436.69760655 95.76368811 434.97613568 113.26171875 418.55078125 C124.27189135 406.97036067 129.54238034 392.37776695 129.34765625 376.48828125 C128.32136193 360.67574659 120.36766855 348.80623465 109.015625 338.26953125 C96.11307751 327.47400527 80.26300882 323.758191 63.76318359 323.85351562 C62.6018692 323.84814285 61.44055481 323.84277008 60.24404907 323.8372345 C57.74573799 323.82752272 55.24739344 323.82449214 52.7490654 323.82759094 C48.77730668 323.83211132 44.8058308 323.81836562 40.83413696 323.79919434 C32.39334575 323.76157852 23.95258086 323.74859192 15.51171875 323.73828125 C6.41364027 323.72714779 -2.68430468 323.71136117 -11.78229368 323.66756868 C-16.3360488 323.6466101 -20.88948033 323.6480145 -25.44326782 323.65368652 C-51.46303066 323.59687749 -75.35833119 319.72139919 -98.86328125 308.23828125 C-99.56340332 307.89780762 -100.26352539 307.55733398 -100.98486328 307.20654297 C-116.29524604 299.66364846 -129.23782258 290.43626181 -141.48242188 278.56787109 C-142.65898132 277.43499579 -143.86027748 276.32790348 -145.06640625 275.2265625 C-170.73602611 251.17433739 -185.57822116 211.79696628 -186.98925781 177.14453125 C-187.95899067 134.52538592 -178.34898841 93.11384281 -149.86328125 60.23828125 C-149.37569336 59.67238281 -148.88810547 59.10648437 -148.38574219 58.5234375 C-141.79639256 50.95105135 -134.85909806 44.34541149 -126.86328125 38.23828125 C-125.94160156 37.5009375 -125.01992188 36.76359375 -124.0703125 36.00390625 C-116.14003547 29.79667187 -107.75942763 24.89326599 -98.86328125 20.23828125 C-98.2182666 19.89410156 -97.57325195 19.54992187 -96.90869141 19.1953125 C-79.16834163 9.83421815 -58.83070706 3.40719376 -38.86328125 1.23828125 C-37.70875961 1.11129852 -37.70875961 1.11129852 -36.53091431 0.98175049 C-24.38409524 -0.1356813 -12.18712935 0.03407527 0 0 Z " fill="#FEFEFE" transform="translate(493.86328125,243.76171875)"/>
<path d="M0 0 C4.21912747 0.4794463 6.79663178 1.16625119 10 4 C9.01 4.33 8.02 4.66 7 5 C6.01 4.34 5.02 3.68 4 3 C1.09815132 2.82792072 -1.70544247 2.76798896 -4.60546875 2.8046875 C-5.44467361 2.8075174 -6.28387848 2.81034729 -7.14851379 2.81326294 C-9.82832103 2.82445615 -12.50779381 2.84955899 -15.1875 2.875 C-17.00455246 2.88503092 -18.82161017 2.89415657 -20.63867188 2.90234375 C-25.09257675 2.92439266 -29.54623167 2.95891649 -34 3 C-34 2.67 -34 2.34 -34 2 C-22.78 1.67 -11.56 1.34 0 1 C0 0.67 0 0.34 0 0 Z " fill="#191819" transform="translate(568,345)"/>
<path d="M0 0 C4.05936521 7.18443207 1.78707548 15.3570611 0 23 C-0.66 23 -1.32 23 -2 23 C-1.85775413 20.47891897 -1.71129879 17.95819597 -1.5625 15.4375 C-1.52318359 14.73302734 -1.48386719 14.02855469 -1.44335938 13.30273438 C-1.17481721 8.8201459 -0.69383803 4.43706503 0 0 Z " fill="#1C1B1B" transform="translate(719,624)"/>
<path d="M0 0 C0.66 0.33 1.32 0.66 2 1 C0.92173635 2.27513763 -0.16285519 3.54492569 -1.25 4.8125 C-1.85328125 5.52019531 -2.4565625 6.22789062 -3.078125 6.95703125 C-4.92370398 8.91889671 -6.79945332 10.45669625 -9 12 C-9.66 11.67 -10.32 11.34 -11 11 C-7.37 7.37 -3.74 3.74 0 0 Z " fill="#2A2A2A" transform="translate(663,333)"/>
<path d="M0 0 C1.25541557 3.76624671 0.37061958 5.37188934 -1 9 C-3 6 -3 6 -2.75 3.375 C-2.5025 2.59125 -2.255 1.8075 -2 1 C-1.34 0.67 -0.68 0.34 0 0 Z " fill="#191919" transform="translate(715,663)"/>
<path d="M0 0 C3 0.25 3 0.25 5 2.25 C1.42355152 3.4880014 -1.33694766 2.99926071 -5 2.25 C-3 0.25 -3 0.25 0 0 Z " fill="#1F1F1F" transform="translate(593,471.75)"/>
</svg>
